{"title":"Haqeeqat 1995 DvDrip 1CD X264 AAC [RRG DBB][DADA]","uid":8263321,"size":868850079,"categoryP":"video","categoryS":"movies","magnet":"?xt=urn:btih:e5b01a0b4d22779f08445742b6b1315419ecafbf&amp;dn=Haqeeqat+1995+DvDrip+1CD+X264+AAC+%5BRRG+DBB%5D%5BDADA%5D&amp;tr=udp%3A%2F%2Ftracker.openbittorrent.com%3A80&amp;tr=udp%3A%2F%2Fopen.demonii.com%3A1337&amp;tr=udp%3A%2F%2Ftracker.coppersurfer.tk%3A6969&amp;tr=udp%3A%2F%2Fexodus.desync.com%3A6969","seeders":0,"leechers":4,"uploader":"brego45","files":1,"time":1363393491,"description":"Haqeeqat 1995 DvDrip 1CD X264 AAC [RRG DBB][DADA]\n\n\n\n-: Cover :- \n &lt;a href=&quot;\nhttp://desibbrg.net/imghost/show.php?img=430135_Haqeeqat.1995.DvDrip.1CD.X264.AAC.RRG.DADA..jpg.html&quot; rel=&quot;nofollow&quot; target=&quot;_NEW&quot;&gt;\nhttp://desibbrg.net/imghost/show.php?img=430135_Haqeeqat.1995.DvDrip.1CD.X264.AAC.RRG.DADA..jpg.html&lt;/a&gt;\n\n\n\n-: Screens :-\n\n  &lt;a href=&quot;\nhttp://desibbrg.net/imghost/show.php?img=430139_Haqeeqat.1995.DvDrip.1CD.X264.AAC.RRG.DADA.DBBIANS.Comthumbs.jpg.html&quot; rel=&quot;nofollow&quot; target=&quot;_NEW&quot;&gt;\nhttp://desibbrg.net/imghost/show.php?img=430139_Haqeeqat.1995.DvDrip.1CD.X264.AAC.RRG.DADA.DBBIANS.Comthumbs.jpg.html&lt;/a&gt;\n\n\n-: Info :-  \n\n\nFormat                           : MP4 Video\nFile size                        : 829 MiB\nDuration                         : 2h 44mn\nOverall bit rate                 : 705 Kbps\n\n\nVideo\nFormat                           : AVC\nFormat/Info                      : Advanced Video Codec\nFormat profile                   : &lt;a class=&quot;__cf_email__&quot; href=&quot;/cdn-cgi/l/email-protection&quot; data-cfemail=&quot;420f232b2c020e716c72&quot;&gt;[email&amp;#160;protected]&lt;/a&gt;&lt;script cf-hash='f9e31' type=&quot;text/javascript&quot;&gt;\n/* &lt;![CDATA[ */!function(){try{var t=&quot;currentScript&quot;in document?document.currentScript:function(){for(var t=document.getElementsByTagName(&quot;script&quot;),e=t.length;e--;)if(t[e].getAttribute(&quot;cf-hash&quot;))return t[e]}();if(t&amp;&amp;t.previousSibling){var e,r,n,i,c=t.previousSibling,a=c.getAttribute(&quot;data-cfemail&quot;);if(a){for(e=&quot;&quot;,r=parseInt(a.substr(0,2),16),n=2;a.length-n;n+=2)i=parseInt(a.substr(n,2),16)^r,e+=String.fromCharCode(i);e=document.createTextNode(e),c.parentNode.replaceChild(e,c)}}}catch(u){}}();/* ]]&gt; */&lt;/script&gt;\nFormat settings, CABAC           : Yes\nFormat settings, ReFrames        : 3 frames\nDuration                         : 2h 44mn\nBit rate                         : 568 Kbps\nWidth                            : 640 pixels\nHeight                           : 480 pixels\nDisplay aspect ratio             : 4:3\nFrame rate mode                  : Constant\nFrame rate                       : 25.000 fps\nColor space                      : YUV\nChroma subsampling               : 4:2:0\nBit depth                        : 8 bits\nScan type                        : Progressive\nBits/(Pixel*Frame)               : 0.074\nStream size                      : 668 MiB (81%)\n\nAudio\nFormat                           : AAC\nFormat/Info                      : Advanced Audio Codec\nFormat version                   : Version 4\nFormat profile                   : LC\nFormat settings, SBR             : No\nDuration                         : 2h 44mn\nBit rate                         : 129 Kbps\nChannel(s)                       : 2 channels\nChannel positions                : Front: L R\nSampling rate                    : 44.1 KHz\nBit depth                        : 16 bits\nStream size                      : 151 MiB (18%)\n &lt;a href=&quot;\nhttp://www.imdb.com/title/tt0286672/&quot; rel=&quot;nofollow&quot; target=&quot;_NEW&quot;&gt;\nhttp://www.imdb.com/title/tt0286672/&lt;/a&gt;\n\n    Genres:\nIndian Cinema, Action &amp; Adventure, Drama\n    Language:\nHindi\n    Running time:\n2:44:25\n    Released:\nDec 20, 1995\n\nCast &amp; Crew\nCast\n\n    Ajay Devgn\n    Tabu\n    Aruna Irani\n    Mohan Joshi\n    Johnny Lever\n\nDirectors\n\n    Sandesh Kohli\n\nProducers\n\n    N.R. Pachisia\n\nWriters\n\n    Rajeev Kaul\n\n\n\n\nAfter her husband, Ravi Malhotra, is killed, Sudha lives the life of a widow with her brother, Mahesh, and Bhabhi, Kamini. A new tenant, Ajay, comes to her rescue when she is molested by Bhavani's brother, both fall in love and decide to get married. Kamini initially opposes this match, but subsequently relents and both get married. Shortly thereafter she gets pregnant and it is then she finds out that Ajay is not who he claims to be, and may have been responsible for killing her husband. \n","torrent":{"xt":"urn:btih:e5b01a0b4d22779f08445742b6b1315419ecafbf","amp;dn":"Haqeeqat+1995+DvDrip+1CD+X264+AAC+%5BRRG+DBB%5D%5BDADA%5D","amp;tr":["udp%3A%2F%2Ftracker.openbittorrent.com%3A80","udp%3A%2F%2Fopen.demonii.com%3A1337","udp%3A%2F%2Ftracker.coppersurfer.tk%3A6969","udp%3A%2F%2Fexodus.desync.com%3A6969"],"infoHash":"e5b01a0b4d22779f08445742b6b1315419ecafbf","infoHashBuffer":{"type":"Buffer","data":[229,176,26,11,77,34,119,159,8,68,87,66,182,177,49,84,25,236,175,191]},"announce":[],"urlList":[]}}